# xmcd
#
# Track frame offsets:
#	182
#	12007
#	34300
#	53332
#	65620
#	87247
#	102010
#	114790
#	129357
#	143360
#	158147
#	180807
#	196107
#	216350
#	248425
#	265772
#	294795
#
# Disc length: 4427 seconds
# Revision: 43
# Processed by: cddbd v1.5.2PL0 Copyright (c) Steve Scherf et al.
# Submitted via: dBpowerAMP V12.0
#
DISCID=c9114911
DTITLE=Various Artist - Crossroads
DYEAR=1988
DGENRE=Rock
TTITLE0=Cream - Anyone For Tennis
TTITLE1=Cream - White Room
TTITLE2=Cream - Crossroads
TTITLE3=Cream - Badge
TTITLE4=Blind Faith - Presence Of The Lord
TTITLE5=Blind Faith - Can't Find My Way Home
TTITLE6=Blind Faith - Sleeping In The Ground
TTITLE7=Delaney and Bonnie - Comin' Home
TTITLE8=Eric Clapton - Blues Power
TTITLE9=Eric Clapton - After Midnight
TTITLE10=Eric Clapton - Let It Rain
TTITLE11=Derek and The Dominos - Tell The Truth
TTITLE12=Derek and The Dominos - Roll It Over
TTITLE13=Derek and The Dominos - Layla
TTITLE14=Eric Clapton and Duane Allman - Mean Old World
TTITLE15=Derek and The Dominos - Key To The Highway
TTITLE16=Derek and The Dominos - Crossroads
EXTD=
EXTT0=
EXTT1=
EXTT2=
EXTT3=
EXTT4=
EXTT5=
EXTT6=
EXTT7=
EXTT8=
EXTT9=
EXTT10=
EXTT11=
EXTT12=
EXTT13=
EXTT14=
EXTT15=
EXTT16=
PLAYORDER=
